<svg width="24" height="25" viewBox="0 0 24 25" fill="none" xmlns="http://www.w3.org/2000/svg">
<path d="M12 21.5C10.7613 21.5 9.59467 21.2633 8.50001 20.79C7.40534 20.3167 6.45201 19.6733 5.64001 18.86C4.82801 18.0467 4.18467 17.0933 3.71001 16C3.23534 14.9067 2.99867 13.74 3.00001 12.5C3.00001 11.258 3.23667 10.0903 3.71001 8.997C4.18334 7.90367 4.82667 6.95133 5.64001 6.14C6.45334 5.32867 7.40667 4.68567 8.50001 4.211C9.59334 3.73633 10.76 3.49933 12 3.5C13.242 3.5 14.4097 3.73667 15.503 4.21C16.5963 4.68333 17.549 5.32667 18.361 6.14C19.173 6.95333 19.8157 7.90567 20.289 8.997C20.7623 10.0883 20.9993 11.256 21 12.5C21 13.7387 20.7633 14.9053 20.29 16C19.8167 17.0947 19.1733 18.048 18.36 18.86C17.5467 19.672 16.5943 20.3153 15.503 20.79C14.4117 21.2647 13.244 21.5013 12 21.5ZM12 20.508C12.5867 19.754 13.0707 19.0137 13.452 18.287C13.8333 17.5603 14.143 16.747 14.381 15.847H9.61901C9.88301 16.7977 10.199 17.6363 10.567 18.363C10.935 19.0897 11.4127 19.8047 12 20.508ZM10.727 20.358C10.2603 19.808 9.83434 19.128 9.44901 18.318C9.06367 17.5087 8.77701 16.6847 8.58901 15.846H4.75301C5.32634 17.09 6.13867 18.11 7.19001 18.906C8.24134 19.702 9.42001 20.186 10.726 20.358M13.272 20.358C14.5773 20.186 15.756 19.702 16.808 18.906C17.86 18.11 18.6723 17.09 19.245 15.846H15.411C15.1577 16.6973 14.8387 17.528 14.454 18.338C14.0687 19.1473 13.6747 19.8207 13.272 20.358ZM4.34501 14.846H8.38001C8.30401 14.436 8.25067 14.0363 8.22001 13.647C8.18801 13.2577 8.17201 12.8753 8.17201 12.5C8.17201 12.1247 8.18767 11.7423 8.21901 11.353C8.25034 10.9637 8.30367 10.5637 8.37901 10.153H4.34701C4.23834 10.4997 4.15334 10.8773 4.09201 11.286C4.03067 11.6947 4.00001 12.0993 4.00001 12.5C4.00001 12.9007 4.03034 13.3053 4.09101 13.714C4.15167 14.1227 4.23667 14.5 4.34601 14.846M9.38101 14.846H14.619C14.695 14.436 14.7483 14.0427 14.779 13.666C14.8097 13.2893 14.826 12.9007 14.828 12.5C14.83 12.0993 14.8143 11.7107 14.781 11.334C14.7477 10.9573 14.6943 10.564 14.621 10.154H9.38001C9.30467 10.564 9.25134 10.9573 9.22001 11.334C9.18867 11.7107 9.17301 12.0993 9.17301 12.5C9.17301 12.9007 9.18867 13.2893 9.22001 13.666C9.25134 14.0427 9.30567 14.436 9.38101 14.846ZM15.62 14.846H19.654C19.7627 14.4993 19.8477 14.122 19.909 13.714C19.9703 13.306 20.0007 12.9013 20 12.5C19.9993 12.0987 19.969 11.694 19.909 11.286C19.849 10.878 19.764 10.5007 19.654 10.154H15.619C15.695 10.564 15.7483 10.9637 15.779 11.353C15.811 11.7423 15.827 12.1247 15.827 12.5C15.827 12.8753 15.8113 13.2577 15.78 13.647C15.7487 14.0363 15.6953 14.4363 15.62 14.847M15.412 9.154H19.246C18.66 7.88467 17.8573 6.86467 16.838 6.094C15.818 5.32333 14.6297 4.83333 13.273 4.624C13.7397 5.23733 14.1593 5.93933 14.532 6.73C14.9047 7.52067 15.198 8.32867 15.412 9.154ZM9.61901 9.154H14.381C14.117 8.21533 13.7913 7.36667 13.404 6.608C13.0167 5.84933 12.5487 5.144 12 4.492C11.4513 5.14333 10.9833 5.84867 10.596 6.608C10.2093 7.36667 9.88367 8.21533 9.61901 9.154ZM4.75401 9.154H8.58801C8.80267 8.328 9.09601 7.52 9.46801 6.73C9.84001 5.94 10.2597 5.23767 10.727 4.623C9.35767 4.833 8.16634 5.32633 7.15301 6.103C6.13967 6.87967 5.33967 7.89633 4.75301 9.153" fill="black"/>
</svg>
