<svg width="100" height="100" viewBox="0 0 100 100" fill="none" xmlns="http://www.w3.org/2000/svg">
<path d="M50 98.5C39.1694 98.5 31.1747 98.4977 24.9628 97.7822C18.7824 97.0705 14.5569 95.6696 11.184 93.0026C9.63064 91.7744 8.22564 90.3694 6.9974 88.816C4.33043 85.4431 2.92954 81.2176 2.21775 75.0372C1.50233 68.8253 1.5 60.8306 1.5 50C1.5 39.1694 1.50233 31.1747 2.21775 24.9628C2.92954 18.7824 4.33043 14.5569 6.9974 11.184C8.22564 9.63064 9.63064 8.22564 11.184 6.9974C14.5569 4.33043 18.7824 2.92954 24.9628 2.21775C31.1747 1.50233 39.1694 1.5 50 1.5C60.8306 1.5 68.8253 1.50233 75.0372 2.21775C81.2176 2.92954 85.4431 4.33043 88.816 6.9974C90.3694 8.22564 91.7744 9.63064 93.0026 11.184C95.6696 14.5569 97.0705 18.7824 97.7822 24.9628C98.4977 31.1747 98.5 39.1694 98.5 50C98.5 60.8306 98.4977 68.8253 97.7822 75.0372C97.0705 81.2176 95.6696 85.4431 93.0026 88.816C91.7744 90.3694 90.3694 91.7744 88.816 93.0026C85.4431 95.6696 81.2176 97.0705 75.0372 97.7822C68.8253 98.4977 60.8306 98.5 50 98.5Z" fill="white" stroke="black" stroke-width="3"/>
<path d="M44.0595 48.955C44.0595 56.6155 37.8494 62.8256 30.1889 62.8256C22.5284 62.8256 16.3184 56.6155 16.3184 48.955C16.3184 41.2945 22.5284 35.0845 30.1889 35.0845C37.8494 35.0845 44.0595 41.2945 44.0595 48.955Z" fill="white"/>
<path fill-rule="evenodd" clip-rule="evenodd" d="M30.1889 61.1938C36.9482 61.1938 42.4276 55.7143 42.4276 48.955C42.4276 42.1958 36.9482 36.7163 30.1889 36.7163C23.4297 36.7163 17.9502 42.1958 17.9502 48.955C17.9502 55.7143 23.4297 61.1938 30.1889 61.1938ZM30.1889 62.8256C37.8494 62.8256 44.0595 56.6155 44.0595 48.955C44.0595 41.2945 37.8494 35.0845 30.1889 35.0845C22.5284 35.0845 16.3184 41.2945 16.3184 48.955C16.3184 56.6155 22.5284 62.8256 30.1889 62.8256Z" fill="black"/>
<path d="M50.1787 48.955C50.1787 56.6155 56.3888 62.8256 64.0493 62.8256C71.7098 62.8256 77.9199 56.6155 77.9199 48.955C77.9199 41.2945 71.7098 35.0845 64.0493 35.0845C56.3888 35.0845 50.1787 41.2945 50.1787 48.955Z" fill="white"/>
<path fill-rule="evenodd" clip-rule="evenodd" d="M64.0493 61.1938C57.29 61.1938 51.8106 55.7143 51.8106 48.955C51.8106 42.1958 57.29 36.7163 64.0493 36.7163C70.8086 36.7163 76.288 42.1958 76.288 48.955C76.288 55.7143 70.8086 61.1938 64.0493 61.1938ZM64.0493 62.8256C56.3888 62.8256 50.1787 56.6155 50.1787 48.955C50.1787 41.2945 56.3888 35.0845 64.0493 35.0845C71.7098 35.0845 77.9199 41.2945 77.9199 48.955C77.9199 56.6155 71.7098 62.8256 64.0493 62.8256Z" fill="black"/>
<path d="M38.348 48.9551C38.348 52.1094 35.7909 54.6665 32.6366 54.6665C29.4823 54.6665 26.9252 52.1094 26.9252 48.9551C26.9252 45.8007 29.4823 43.2437 32.6366 43.2437C35.7909 43.2437 38.348 45.8007 38.348 48.9551Z" fill="black"/>
<path d="M55.8902 48.9551C55.8902 52.1094 58.4473 54.6665 61.6016 54.6665C64.7559 54.6665 67.313 52.1094 67.313 48.9551C67.313 45.8007 64.7559 43.2437 61.6016 43.2437C58.4473 43.2437 55.8902 45.8007 55.8902 48.9551Z" fill="black"/>
<path d="M35.9003 48.1392C35.9003 49.0404 35.1697 49.771 34.2684 49.771C33.3672 49.771 32.6366 49.0404 32.6366 48.1392C32.6366 47.2379 33.3672 46.5073 34.2684 46.5073C35.1697 46.5073 35.9003 47.2379 35.9003 48.1392Z" fill="white"/>
<path d="M58.3379 48.1392C58.3379 49.0404 59.0685 49.771 59.9697 49.771C60.871 49.771 61.6016 49.0404 61.6016 48.1392C61.6016 47.2379 60.871 46.5073 59.9697 46.5073C59.0685 46.5073 58.3379 47.2379 58.3379 48.1392Z" fill="white"/>
<path fill-rule="evenodd" clip-rule="evenodd" d="M11.8308 42.8357C11.8308 42.1598 12.3788 41.6118 13.0547 41.6118H44.0595C44.7354 41.6118 45.2833 42.1598 45.2833 42.8357C45.2833 43.5116 44.7354 44.0596 44.0595 44.0596H13.0547C12.3788 44.0596 11.8308 43.5116 11.8308 42.8357Z" fill="black"/>
<path fill-rule="evenodd" clip-rule="evenodd" d="M82.4074 42.8357C82.4074 42.1598 81.8595 41.6118 81.1835 41.6118H50.1788C49.5028 41.6118 48.9549 42.1598 48.9549 42.8357C48.9549 43.5116 49.5028 44.0596 50.1788 44.0596H81.1835C81.8595 44.0596 82.4074 43.5116 82.4074 42.8357Z" fill="black"/>
<path d="M40.7958 52.1739C40.7958 55.2632 37.569 60.3779 30.3749 60.3779C23.1809 60.3779 19.582 55.2632 19.582 52.1739C19.582 49.0846 23.1809 56.2759 30.3749 56.2759C37.569 56.2759 40.7958 49.0846 40.7958 52.1739Z" fill="#DFECF1"/>
<path d="M53.4425 52.1739C53.4425 55.2632 56.6692 60.3779 63.8633 60.3779C71.0573 60.3779 74.6562 55.2632 74.6562 52.1739C74.6562 49.0846 71.0573 56.2759 63.8633 56.2759C56.6692 56.2759 53.4425 49.0846 53.4425 52.1739Z" fill="#DFECF1"/>
<path fill-rule="evenodd" clip-rule="evenodd" d="M29.7384 22.6608C26.6548 25.8174 23.4407 30.2116 21.423 33.3054C21.0537 33.8716 20.2954 34.0312 19.7293 33.662C19.1631 33.2927 19.0035 32.5344 19.3727 31.9683C21.4346 28.8068 24.7478 24.2666 27.9875 20.9503C29.5941 19.3058 31.2648 17.8756 32.8162 17.1003C33.595 16.7112 34.4343 16.4405 35.2751 16.4611C36.1642 16.4828 36.9816 16.8309 37.6217 17.5351C40.8509 21.0872 45.717 25.7649 47.7501 27.6625C48.2443 28.1237 48.271 28.8982 47.8098 29.3923C47.3486 29.8865 46.5741 29.9132 46.08 29.452C44.0336 27.542 39.1087 22.8095 35.8105 19.1816C35.6348 18.9883 35.4577 18.914 35.2154 18.9081C34.9248 18.901 34.4956 18.9975 33.9103 19.2899C32.7335 19.878 31.2935 21.0689 29.7384 22.6608Z" fill="black"/>
<path fill-rule="evenodd" clip-rule="evenodd" d="M64.4997 22.6608C67.5834 25.8174 70.7975 30.2116 72.8152 33.3054C73.1844 33.8716 73.9427 34.0312 74.5089 33.662C75.075 33.2927 75.2347 32.5344 74.8654 31.9683C72.8036 28.8068 69.4903 24.2666 66.2507 20.9503C64.6441 19.3058 62.9734 17.8756 61.422 17.1003C60.6432 16.7112 59.8038 16.4405 58.963 16.4611C58.0739 16.4828 57.2566 16.8309 56.6164 17.5351C53.3872 21.0872 48.5212 25.7649 46.488 27.6625C45.9939 28.1237 45.9672 28.8982 46.4284 29.3923C46.8896 29.8865 47.664 29.9132 48.1582 29.452C50.2046 27.542 55.1295 22.8095 58.4276 19.1816C58.6033 18.9883 58.7804 18.914 59.0228 18.9081C59.3134 18.901 59.7425 18.9975 60.3279 19.2899C61.5047 19.878 62.9446 21.0689 64.4997 22.6608Z" fill="black"/>
<path fill-rule="evenodd" clip-rule="evenodd" d="M78.8173 65.3754C79.4368 65.6457 79.7199 66.3671 79.4495 66.9866C75.3172 76.4565 67.462 80.3524 59.4832 81.3776C51.5572 82.396 43.4143 80.6096 38.3176 78.6547C37.6866 78.4126 37.3712 77.7048 37.6132 77.0737C37.8553 76.4426 38.5631 76.1272 39.1942 76.3693C44.0246 78.222 51.7512 79.9032 59.1712 78.9498C66.5384 78.0032 73.5056 74.4879 77.2061 66.0077C77.4764 65.3881 78.1978 65.1051 78.8173 65.3754Z" fill="black"/>
<path fill-rule="evenodd" clip-rule="evenodd" d="M74.5319 62.042C74.9646 61.5227 75.7364 61.4525 76.2556 61.8853L83.5989 68.0046C84.1181 68.4373 84.1883 69.2091 83.7556 69.7283C83.3229 70.2476 82.5511 70.3178 82.0319 69.885L74.6886 63.7657C74.1694 63.333 74.0992 62.5612 74.5319 62.042Z" fill="black"/>
<path fill-rule="evenodd" clip-rule="evenodd" d="M78.3389 57.388C78.413 56.9435 78.8334 56.6432 79.2779 56.7173C81.9576 57.1639 87.5287 59.7941 88.9189 66.7451C89.0072 67.187 88.7207 67.6168 88.2788 67.7052C87.8369 67.7936 87.4071 67.507 87.3187 67.0651C86.098 60.9615 81.2253 58.6962 79.0096 58.3269C78.5651 58.2528 78.2648 57.8324 78.3389 57.388Z" fill="black"/>
</svg>
